<?xml version="1.0" encoding="UTF-8"?>
<!DOCTYPE svg PUBLIC "-//W3C//DTD SVG 1.1//EN" "http://www.w3.org/Graphics/SVG/1.1/DTD/svg11.dtd">
<svg xmlns="http://www.w3.org/2000/svg" version="1.1" width="500px" height="500px" style="shape-rendering:geometricPrecision; text-rendering:geometricPrecision; image-rendering:optimizeQuality; fill-rule:evenodd; clip-rule:evenodd" xmlns:xlink="http://www.w3.org/1999/xlink">
<g><path style="opacity:0.965" fill="#1b233e" d="M 405.5,47.5 C 402.763,47.5987 400.096,47.2653 397.5,46.5C 303.167,46.5 208.833,46.5 114.5,46.5C 112.876,46.3601 111.71,47.0267 111,48.5C 109.301,47.5939 107.467,47.2606 105.5,47.5C 106.681,45.9328 108.347,45.0995 110.5,45C 207.167,44.3333 303.833,44.3333 400.5,45C 402.491,45.3736 404.158,46.207 405.5,47.5 Z"/></g>
<g><path style="opacity:1" fill="#1d3267" d="M 114.5,46.5 C 115.11,47.391 115.443,48.391 115.5,49.5C 114.262,49.81 114.262,50.31 115.5,51C 205.328,51.4839 295.328,51.6505 385.5,51.5C 389.846,51.6657 394.179,51.499 398.5,51C 398.833,50.6667 399.167,50.3333 399.5,50C 395.795,49.5783 395.128,48.4116 397.5,46.5C 400.096,47.2653 402.763,47.5987 405.5,47.5C 406.5,47.8333 407.167,48.5 407.5,49.5C 407.128,52.0217 407.961,54.0217 410,55.5C 410.667,66.5 410.667,77.5 410,88.5C 406.878,93.4091 404.044,99.0757 401.5,105.5C 401.672,106.492 401.338,107.158 400.5,107.5C 399.167,107.5 397.833,107.5 396.5,107.5C 395.947,111.945 393.781,115.611 390,118.5C 388.294,122.66 386.461,126.66 384.5,130.5C 382.878,131.122 381.545,132.122 380.5,133.5C 378.467,131.837 376.634,129.837 375,127.5C 374.626,128.416 374.126,129.25 373.5,130C 374.833,130.667 374.833,131.333 373.5,132C 376.479,133.612 377.812,136.112 377.5,139.5C 375.248,138.667 373.081,138.667 371,139.5C 369.383,138.464 369.216,137.297 370.5,136C 369.552,135.517 368.552,135.351 367.5,135.5C 367.651,132.282 368.484,131.949 370,134.5C 370.692,133.975 371.192,133.308 371.5,132.5C 370.754,131.264 370.421,129.93 370.5,128.5C 374.697,124.78 377.364,120.113 378.5,114.5C 382.199,112.864 384.533,110.198 385.5,106.5C 387.854,105.506 388.854,106.506 388.5,109.5C 389.822,109.33 390.989,109.663 392,110.5C 392.692,109.975 393.192,109.308 393.5,108.5C 391.187,105.879 389.853,102.879 389.5,99.5C 391.807,99.9863 393.973,99.9863 396,99.5C 396.833,100.5 397.667,101.5 398.5,102.5C 398.833,102 399.167,101.5 399.5,101C 397.482,97.8701 395.815,94.7034 394.5,91.5C 396.624,90.9688 398.124,89.6355 399,87.5C 399.333,87.8333 399.667,88.1667 400,88.5C 400.14,78.997 399.64,69.6637 398.5,60.5C 398.158,59.6618 397.492,59.3284 396.5,59.5C 301.833,59.5 207.167,59.5 112.5,59.5C 111.549,60.9187 111.216,62.5853 111.5,64.5C 111.167,64.5 110.833,64.5 110.5,64.5C 110.657,63.1266 110.49,61.7932 110,60.5C 108.951,62.3844 107.451,63.7177 105.5,64.5C 103.917,64.5662 102.25,64.2328 100.5,63.5C 101.742,58.7563 103.076,54.0896 104.5,49.5C 104.833,48.8333 105.167,48.1667 105.5,47.5C 107.467,47.2606 109.301,47.5939 111,48.5C 111.71,47.0267 112.876,46.3601 114.5,46.5 Z"/></g>
<g><path style="opacity:1" fill="#1b3269" d="M 114.5,46.5 C 208.833,46.5 303.167,46.5 397.5,46.5C 395.128,48.4116 395.795,49.5783 399.5,50C 399.167,50.3333 398.833,50.6667 398.5,51C 394.179,51.499 389.846,51.6657 385.5,51.5C 385.611,50.8826 385.944,50.3826 386.5,50C 296.167,49.5 205.834,49.3333 115.5,49.5C 115.443,48.391 115.11,47.391 114.5,46.5 Z"/></g>
<g><path style="opacity:0.898" fill="#0f172d" d="M 105.5,47.5 C 105.167,48.1667 104.833,48.8333 104.5,49.5C 102.833,50.8333 101.167,52.1667 99.5,53.5C 100.5,50.5 102.5,48.5 105.5,47.5 Z"/></g>
<g><path style="opacity:1" fill="#202f6b" d="M 115.5,49.5 C 205.834,49.3333 296.167,49.5 386.5,50C 385.944,50.3826 385.611,50.8826 385.5,51.5C 295.328,51.6505 205.328,51.4839 115.5,51C 114.262,50.31 114.262,49.81 115.5,49.5 Z"/></g>
<g><path style="opacity:1" fill="#1d316a" d="M 129.5,53.5 C 213.98,53.4574 298.313,53.7908 382.5,54.5C 297.835,55.6667 213.169,55.8333 128.5,55C 129.056,54.6174 129.389,54.1174 129.5,53.5 Z"/></g>
<g><path style="opacity:1" fill="#21325f" d="M 104.5,49.5 C 103.076,54.0896 101.742,58.7563 100.5,63.5C 100.5,80.5 100.5,97.5 100.5,114.5C 99.5029,94.6736 99.1695,74.6736 99.5,54.5C 99.5,54.1667 99.5,53.8333 99.5,53.5C 101.167,52.1667 102.833,50.8333 104.5,49.5 Z"/></g>
<g><path style="opacity:1" fill="#1d316b" d="M 110.5,64.5 C 109.504,79.6576 109.17,94.9909 109.5,110.5C 108.167,110.5 106.833,110.5 105.5,110.5C 105.5,95.1667 105.5,79.8333 105.5,64.5C 107.451,63.7177 108.951,62.3844 110,60.5C 110.49,61.7932 110.657,63.1266 110.5,64.5 Z"/></g>
<g><path style="opacity:0.26" fill="#040b25" d="M 396.5,60.5 C 396.5,60.1667 396.5,59.8333 396.5,59.5C 397.492,59.3284 398.158,59.6618 398.5,60.5C 398.826,68.6841 398.492,76.6841 397.5,84.5C 397.826,76.3159 397.492,68.3159 396.5,60.5 Z"/></g>
<g><path style="opacity:0.059" fill="#000014" d="M 112.5,59.5 C 207.167,59.5 301.833,59.5 396.5,59.5C 396.5,59.8333 396.5,60.1667 396.5,60.5C 302.167,60.5 207.833,60.5 113.5,60.5C 113.182,77.577 113.515,94.577 114.5,111.5C 113.833,111.5 113.167,111.5 112.5,111.5C 112.5,94.1667 112.5,76.8333 112.5,59.5 Z"/></g>
<g><path style="opacity:0.782" fill="#162140" d="M 99.5,54.5 C 99.1695,74.6736 99.5029,94.6736 100.5,114.5C 100.5,116.167 100.5,117.833 100.5,119.5C 99.7321,118.737 99.2321,117.737 99,116.5C 98.1707,95.6626 98.3374,74.9959 99.5,54.5 Z"/></g>
<g><path style="opacity:1" fill="#1f2f58" d="M 398.5,60.5 C 399.64,69.6637 400.14,78.997 400,88.5C 399.667,88.1667 399.333,87.8333 399,87.5C 398.124,89.6355 396.624,90.9688 394.5,91.5C 395.227,89.0462 396.227,86.7128 397.5,84.5C 398.492,76.6841 398.826,68.6841 398.5,60.5 Z"/></g>
<g><path style="opacity:1" fill="#1b2f5d" d="M 394.5,91.5 C 395.815,94.7034 397.482,97.8701 399.5,101C 399.167,101.5 398.833,102 398.5,102.5C 397.667,101.5 396.833,100.5 396,99.5C 393.973,99.9863 391.807,99.9863 389.5,99.5C 389.853,102.879 391.187,105.879 393.5,108.5C 393.192,109.308 392.692,109.975 392,110.5C 390.989,109.663 389.822,109.33 388.5,109.5C 388.854,106.506 387.854,105.506 385.5,106.5C 385.5,105.833 385.5,105.167 385.5,104.5C 388.117,99.8859 391.117,95.5526 394.5,91.5 Z"/></g>
<g><path style="opacity:1" fill="#182342" d="M 407.5,49.5 C 409.708,50.8936 411.208,52.8936 412,55.5C 412.823,64.1643 413.156,72.8309 413,81.5C 412.084,90.9952 408.251,98.9952 401.5,105.5C 404.044,99.0757 406.878,93.4091 410,88.5C 410.667,77.5 410.667,66.5 410,55.5C 407.961,54.0217 407.128,52.0217 407.5,49.5 Z"/></g>
<g><path style="opacity:1" fill="#182443" d="M 385.5,104.5 C 385.5,105.167 385.5,105.833 385.5,106.5C 384.533,110.198 382.199,112.864 378.5,114.5C 380.344,110.808 382.677,107.475 385.5,104.5 Z"/></g>
<g><path style="opacity:0.542" fill="#101a39" d="M 112.5,111.5 C 113.167,111.5 113.833,111.5 114.5,111.5C 168.834,111.333 223.168,111.5 277.5,112C 285.467,115.735 287.134,121.235 282.5,128.5C 283.863,124.462 283.696,120.462 282,116.5C 280.556,114.845 278.722,114.178 276.5,114.5C 276.082,113.778 275.416,113.278 274.5,113C 220.332,112.833 166.332,112.333 112.5,111.5 Z"/></g>
<g><path style="opacity:1" fill="#21315d" d="M 112.5,59.5 C 112.5,76.8333 112.5,94.1667 112.5,111.5C 166.332,112.333 220.332,112.833 274.5,113C 275.416,113.278 276.082,113.778 276.5,114.5C 221.523,113.517 166.523,113.183 111.5,113.5C 111.5,97.1667 111.5,80.8333 111.5,64.5C 111.216,62.5853 111.549,60.9187 112.5,59.5 Z"/></g>
<g><path style="opacity:1" fill="#1c3267" d="M 100.5,63.5 C 102.25,64.2328 103.917,64.5662 105.5,64.5C 105.5,79.8333 105.5,95.1667 105.5,110.5C 106.833,110.5 108.167,110.5 109.5,110.5C 109.17,94.9909 109.504,79.6576 110.5,64.5C 110.833,64.5 111.167,64.5 111.5,64.5C 111.5,80.8333 111.5,97.1667 111.5,113.5C 166.523,113.183 221.523,113.517 276.5,114.5C 278.722,114.178 280.556,114.845 282,116.5C 283.696,120.462 283.863,124.462 282.5,128.5C 281.292,129.234 279.959,129.567 278.5,129.5C 278.326,131.861 277.993,134.194 277.5,136.5C 277.5,137.167 277.167,137.5 276.5,137.5C 275.178,137.67 274.011,137.337 273,136.5C 272.544,137.744 273.044,138.577 274.5,139C 273.552,139.483 272.552,139.649 271.5,139.5C 270.024,142.661 269.024,145.995 268.5,149.5C 268.167,150.167 267.833,150.833 267.5,151.5C 264.821,151.525 263.488,152.858 263.5,155.5C 262.5,155.5 261.5,155.5 260.5,155.5C 260.326,157.861 259.993,160.194 259.5,162.5C 256.196,163.144 254.862,165.144 255.5,168.5C 255.573,170.027 254.906,171.027 253.5,171.5C 253.737,170.209 253.404,169.209 252.5,168.5C 251.909,167.849 251.243,167.182 250.5,166.5C 252.297,164.869 253.464,162.869 254,160.5C 255.471,162.872 256.637,162.872 257.5,160.5C 257.167,158.833 256.167,157.833 254.5,157.5C 251.225,159.604 248.891,162.437 247.5,166C 245.924,165.848 244.591,165.015 243.5,163.5C 242.386,164.723 242.219,166.056 243,167.5C 243.914,166.346 244.747,166.513 245.5,168C 243.19,169.637 241.69,171.804 241,174.5C 238.907,171.862 237.407,172.196 236.5,175.5C 236.5,174.167 236.5,172.833 236.5,171.5C 238.673,167.148 241.34,163.148 244.5,159.5C 245.906,159.027 246.573,158.027 246.5,156.5C 247.34,154.147 248.674,152.147 250.5,150.5C 251.906,150.027 252.573,149.027 252.5,147.5C 253.906,147.027 254.573,146.027 254.5,144.5C 259.42,141.567 262.42,137.233 263.5,131.5C 263.427,129.973 264.094,128.973 265.5,128.5C 266.833,127.5 266.833,126.5 265.5,125.5C 262.375,124.521 259.042,124.187 255.5,124.5C 258.854,122.742 262.521,121.742 266.5,121.5C 266.915,119.052 265.915,117.719 263.5,117.5C 214.55,117.525 165.716,117.525 117,117.5C 115.278,117.611 115.112,118.111 116.5,119C 162.976,119.005 209.31,119.672 255.5,121C 207.156,120.837 159.156,121.67 111.5,123.5C 108.774,123.736 106.441,122.903 104.5,121C 103.432,118.562 102.098,116.395 100.5,114.5C 100.5,97.5 100.5,80.5 100.5,63.5 Z"/></g>
<g><path style="opacity:1" fill="#192443" d="M 400.5,107.5 C 395.893,115.728 390.56,123.394 384.5,130.5C 386.461,126.66 388.294,122.66 390,118.5C 393.781,115.611 395.947,111.945 396.5,107.5C 397.833,107.5 399.167,107.5 400.5,107.5 Z"/></g>
<g><path style="opacity:1" fill="#1d316a" d="M 255.5,124.5 C 207.33,124.832 159.33,124.499 111.5,123.5C 159.156,121.67 207.156,120.837 255.5,121C 209.31,119.672 162.976,119.005 116.5,119C 115.112,118.111 115.278,117.611 117,117.5C 165.716,117.525 214.55,117.525 263.5,117.5C 265.915,117.719 266.915,119.052 266.5,121.5C 262.521,121.742 258.854,122.742 255.5,124.5 Z"/></g>
<g><path style="opacity:1" fill="#212f5a" d="M 100.5,114.5 C 102.098,116.395 103.432,118.562 104.5,121C 106.441,122.903 108.774,123.736 111.5,123.5C 159.33,124.499 207.33,124.832 255.5,124.5C 259.042,124.187 262.375,124.521 265.5,125.5C 213.5,125.5 161.5,125.5 109.5,125.5C 105.435,125.103 102.435,123.103 100.5,119.5C 100.5,117.833 100.5,116.167 100.5,114.5 Z"/></g>
<g><path style="opacity:0.229" fill="#040e1f" d="M 109.5,125.5 C 161.5,125.5 213.5,125.5 265.5,125.5C 266.833,126.5 266.833,127.5 265.5,128.5C 213.675,126.835 161.675,125.835 109.5,125.5 Z"/></g>
<g><path style="opacity:1" fill="#19274c" d="M 378.5,114.5 C 377.364,120.113 374.697,124.78 370.5,128.5C 369.833,128.833 369.167,129.167 368.5,129.5C 371.092,123.976 374.425,118.976 378.5,114.5 Z"/></g>
<g><path style="opacity:1" fill="#151f40" d="M 282.5,128.5 C 281.331,131.511 279.664,134.178 277.5,136.5C 277.993,134.194 278.326,131.861 278.5,129.5C 279.959,129.567 281.292,129.234 282.5,128.5 Z"/></g>
<g><path style="opacity:1" fill="#1a274c" d="M 263.5,131.5 C 262.42,137.233 259.42,141.567 254.5,144.5C 257.117,139.886 260.117,135.553 263.5,131.5 Z"/></g>
<g><path style="opacity:1" fill="#192447" d="M 366.5,132.5 C 366.787,136.215 365.12,138.548 361.5,139.5C 362.433,136.63 364.1,134.296 366.5,132.5 Z"/></g>
<g><path style="opacity:1" fill="#192644" d="M 384.5,130.5 C 383.241,134.025 381.241,137.025 378.5,139.5C 378.253,137.142 378.919,135.142 380.5,133.5C 381.545,132.122 382.878,131.122 384.5,130.5 Z"/></g>
<g><path style="opacity:1" fill="#1a264b" d="M 276.5,137.5 C 274.327,141.852 271.66,145.852 268.5,149.5C 269.024,145.995 270.024,142.661 271.5,139.5C 272.552,139.649 273.552,139.483 274.5,139C 273.044,138.577 272.544,137.744 273,136.5C 274.011,137.337 275.178,137.67 276.5,137.5 Z"/></g>
<g><path style="opacity:1" fill="#18223f" d="M 378.5,140.5 C 376.853,143.473 374.853,146.14 372.5,148.5C 372.234,144.103 374.234,141.437 378.5,140.5 Z"/></g>
<g><path style="opacity:0.459" fill="#0e1629" d="M 254.5,144.5 C 254.573,146.027 253.906,147.027 252.5,147.5C 252.427,145.973 253.094,144.973 254.5,144.5 Z"/></g>
<g><path style="opacity:0.478" fill="#0d1329" d="M 252.5,147.5 C 252.573,149.027 251.906,150.027 250.5,150.5C 250.427,148.973 251.094,147.973 252.5,147.5 Z"/></g>
<g><path style="opacity:1" fill="#1c284b" d="M 359.5,142.5 C 358.724,148.388 355.724,152.721 350.5,155.5C 353.117,150.886 356.117,146.553 359.5,142.5 Z"/></g>
<g><path style="opacity:0.992" fill="#16203e" d="M 372.5,148.5 C 371.525,150.795 370.192,152.795 368.5,154.5C 368.354,151.446 369.687,149.446 372.5,148.5 Z"/></g>
<g><path style="opacity:1" fill="#182545" d="M 267.5,151.5 C 265.066,155.382 262.399,159.048 259.5,162.5C 259.993,160.194 260.326,157.861 260.5,155.5C 261.5,155.5 262.5,155.5 263.5,155.5C 263.488,152.858 264.821,151.525 267.5,151.5 Z"/></g>
<g><path style="opacity:1" fill="#162648" d="M 367.5,155.5 C 366.66,157.853 365.326,159.853 363.5,161.5C 362.599,157.759 363.932,155.759 367.5,155.5 Z"/></g>
<g><path style="opacity:0.596" fill="#0f152f" d="M 246.5,156.5 C 246.573,158.027 245.906,159.027 244.5,159.5C 244.427,157.973 245.094,156.973 246.5,156.5 Z"/></g>
<g><path style="opacity:1" fill="#15203c" d="M 363.5,161.5 C 362.241,165.025 360.241,168.025 357.5,170.5C 358.172,167.356 359.172,164.356 360.5,161.5C 361.5,161.5 362.5,161.5 363.5,161.5 Z"/></g>
<g><path style="opacity:0.957" fill="#141f3a" d="M 259.5,162.5 C 258.66,164.853 257.326,166.853 255.5,168.5C 254.862,165.144 256.196,163.144 259.5,162.5 Z"/></g>
<g><path style="opacity:1" fill="#1c2955" d="M 350.5,155.5 C 349.136,158.668 348.303,162.001 348,165.5C 347.667,165.167 347.333,164.833 347,164.5C 345.637,167.306 343.803,169.64 341.5,171.5C 341.5,170.5 341.5,169.5 341.5,168.5C 344.143,163.868 347.143,159.535 350.5,155.5 Z"/></g>
<g><path style="opacity:1" fill="#1d3167" d="M 380.5,133.5 C 378.919,135.142 378.253,137.142 378.5,139.5C 378.5,139.833 378.5,140.167 378.5,140.5C 374.234,141.437 372.234,144.103 372.5,148.5C 369.687,149.446 368.354,151.446 368.5,154.5C 368.5,155.167 368.167,155.5 367.5,155.5C 363.932,155.759 362.599,157.759 363.5,161.5C 362.5,161.5 361.5,161.5 360.5,161.5C 359.172,164.356 358.172,167.356 357.5,170.5C 357.167,171.167 356.833,171.833 356.5,172.5C 355.167,172.5 353.833,172.5 352.5,172.5C 352.007,174.806 351.674,177.139 351.5,179.5C 347.476,180.528 345.476,183.195 345.5,187.5C 344.5,187.5 343.5,187.5 342.5,187.5C 341.912,190.932 340.245,193.765 337.5,196C 336.767,197.766 336.433,199.599 336.5,201.5C 336.5,202.167 336.167,202.5 335.5,202.5C 334.167,202.5 332.833,202.5 331.5,202.5C 331.5,204.5 331.5,206.5 331.5,208.5C 328.266,210.622 326.266,213.622 325.5,217.5C 325.5,218.167 325.167,218.5 324.5,218.5C 323.312,219.684 322.145,219.684 321,218.5C 321.019,220.107 321.185,221.774 321.5,223.5C 319.989,224.502 318.322,225.169 316.5,225.5C 315.514,228.978 314.18,232.311 312.5,235.5C 311.178,235.33 310.011,235.663 309,236.5C 308.338,238.813 307.838,241.146 307.5,243.5C 306.5,243.5 305.5,243.5 304.5,243.5C 304.07,247.102 302.237,249.769 299,251.5C 298.506,253.134 298.34,254.801 298.5,256.5C 295.047,258.515 293.047,261.515 292.5,265.5C 291.292,266.234 289.959,266.567 288.5,266.5C 287.833,269.167 287.167,271.833 286.5,274.5C 286.5,275.167 286.167,275.5 285.5,275.5C 283.958,276.301 282.292,276.634 280.5,276.5C 280.599,279.237 280.265,281.904 279.5,284.5C 277.952,284.821 277.285,285.821 277.5,287.5C 277.167,287.5 276.833,287.5 276.5,287.5C 275.5,287.5 274.5,287.5 273.5,287.5C 273.5,288.5 273.5,289.5 273.5,290.5C 271.5,290.167 269.5,289.833 267.5,289.5C 266.719,293.652 264.719,297.152 261.5,300C 260.668,300.688 260.002,300.521 259.5,299.5C 261.086,297.827 261.753,295.827 261.5,293.5C 261.179,292.183 260.846,290.849 260.5,289.5C 261.187,287.823 261.854,286.156 262.5,284.5C 265.804,283.856 267.138,281.856 266.5,278.5C 269.917,277.414 271.917,275.081 272.5,271.5C 275.896,267.721 279.063,263.721 282,259.5C 283.953,256.745 285.12,253.745 285.5,250.5C 287.797,248.229 290.297,246.229 293,244.5C 293.44,242.134 293.94,239.801 294.5,237.5C 295.34,235.147 296.674,233.147 298.5,231.5C 299.906,231.027 300.573,230.027 300.5,228.5C 303.323,227.008 304.99,224.674 305.5,221.5C 306.906,221.027 307.573,220.027 307.5,218.5C 308.569,216.031 309.902,213.698 311.5,211.5C 316.361,208.963 319.361,204.963 320.5,199.5C 322.229,198.883 323.729,197.883 325,196.5C 325.93,193.638 327.597,191.305 330,189.5C 331.045,186.467 332.712,183.8 335,181.5C 335.49,180.207 335.657,178.873 335.5,177.5C 336.906,177.027 337.573,176.027 337.5,174.5C 338.833,173.5 340.167,172.5 341.5,171.5C 343.803,169.64 345.637,167.306 347,164.5C 347.333,164.833 347.667,165.167 348,165.5C 348.303,162.001 349.136,158.668 350.5,155.5C 355.724,152.721 358.724,148.388 359.5,142.5C 359.427,140.973 360.094,139.973 361.5,139.5C 365.12,138.548 366.787,136.215 366.5,132.5C 366.427,130.973 367.094,129.973 368.5,129.5C 369.167,129.167 369.833,128.833 370.5,128.5C 370.421,129.93 370.754,131.264 371.5,132.5C 371.192,133.308 370.692,133.975 370,134.5C 368.484,131.949 367.651,132.282 367.5,135.5C 368.552,135.351 369.552,135.517 370.5,136C 369.216,137.297 369.383,138.464 371,139.5C 373.081,138.667 375.248,138.667 377.5,139.5C 377.812,136.112 376.479,133.612 373.5,132C 374.833,131.333 374.833,130.667 373.5,130C 374.126,129.25 374.626,128.416 375,127.5C 376.634,129.837 378.467,131.837 380.5,133.5 Z"/></g>
<g><path style="opacity:0.765" fill="#141b33" d="M 341.5,168.5 C 341.5,169.5 341.5,170.5 341.5,171.5C 340.167,172.5 338.833,173.5 337.5,174.5C 338.449,172.223 339.782,170.223 341.5,168.5 Z"/></g>
<g><path style="opacity:1" fill="#192544" d="M 236.5,171.5 C 236.5,172.833 236.5,174.167 236.5,175.5C 234.588,177.99 232.255,179.99 229.5,181.5C 231.062,177.608 233.395,174.275 236.5,171.5 Z"/></g>
<g><path style="opacity:0.804" fill="#121830" d="M 337.5,174.5 C 337.573,176.027 336.906,177.027 335.5,177.5C 335.427,175.973 336.094,174.973 337.5,174.5 Z"/></g>
<g><path style="opacity:0.973" fill="#15203d" d="M 356.5,172.5 C 355.066,175.047 353.4,177.381 351.5,179.5C 351.674,177.139 352.007,174.806 352.5,172.5C 353.833,172.5 355.167,172.5 356.5,172.5 Z"/></g>
<g><path style="opacity:1" fill="#16223f" d="M 351.5,179.5 C 349.975,182.563 347.975,185.23 345.5,187.5C 345.476,183.195 347.476,180.528 351.5,179.5 Z"/></g>
<g><path style="opacity:0.82" fill="#111a28" d="M 229.5,181.5 C 229.573,183.027 228.906,184.027 227.5,184.5C 227.427,182.973 228.094,181.973 229.5,181.5 Z"/></g>
<g><path style="opacity:1" fill="#172142" d="M 252.5,168.5 C 253.404,169.209 253.737,170.209 253.5,171.5C 250.607,177.388 246.94,182.722 242.5,187.5C 246.116,180.514 249.449,174.181 252.5,168.5 Z"/></g>
<g><path style="opacity:1" fill="#1a284a" d="M 335.5,177.5 C 335.657,178.873 335.49,180.207 335,181.5C 332.712,183.8 331.045,186.467 330,189.5C 327.597,191.305 325.93,193.638 325,196.5C 323.729,197.883 322.229,198.883 320.5,199.5C 320.427,197.973 321.094,196.973 322.5,196.5C 323.906,196.027 324.573,195.027 324.5,193.5C 327.676,187.811 331.342,182.477 335.5,177.5 Z"/></g>
<g><path style="opacity:0.976" fill="#192343" d="M 345.5,187.5 C 342.996,192.515 339.996,197.181 336.5,201.5C 336.433,199.599 336.767,197.766 337.5,196C 340.245,193.765 341.912,190.932 342.5,187.5C 343.5,187.5 344.5,187.5 345.5,187.5 Z"/></g>
<g><path style="opacity:1" fill="#1b274a" d="M 227.5,184.5 C 227.483,186.565 227.15,188.565 226.5,190.5C 224.859,193.129 222.526,195.129 219.5,196.5C 221.673,192.148 224.34,188.148 227.5,184.5 Z"/></g>
<g><path style="opacity:1" fill="#1d3169" d="M 252.5,168.5 C 249.449,174.181 246.116,180.514 242.5,187.5C 242.672,188.492 242.338,189.158 241.5,189.5C 239.071,190.265 237.738,191.931 237.5,194.5C 236.5,194.5 235.5,194.5 234.5,194.5C 233.486,197.507 232.486,200.507 231.5,203.5C 230.325,203.281 229.325,203.614 228.5,204.5C 226.858,208.121 224.858,211.454 222.5,214.5C 220.587,210.301 219.087,205.968 218,201.5C 219.667,198.5 222,196.167 225,194.5C 225.333,196.833 225.667,199.167 226,201.5C 228.659,199.94 229.826,197.607 229.5,194.5C 226.046,194.733 225.046,193.4 226.5,190.5C 227.15,188.565 227.483,186.565 227.5,184.5C 228.906,184.027 229.573,183.027 229.5,181.5C 232.255,179.99 234.588,177.99 236.5,175.5C 237.407,172.196 238.907,171.862 241,174.5C 241.69,171.804 243.19,169.637 245.5,168C 244.747,166.513 243.914,166.346 243,167.5C 242.219,166.056 242.386,164.723 243.5,163.5C 244.591,165.015 245.924,165.848 247.5,166C 248.891,162.437 251.225,159.604 254.5,157.5C 256.167,157.833 257.167,158.833 257.5,160.5C 256.637,162.872 255.471,162.872 254,160.5C 253.464,162.869 252.297,164.869 250.5,166.5C 251.243,167.182 251.909,167.849 252.5,168.5 Z"/></g>
<g><path style="opacity:0.529" fill="#0c1624" d="M 324.5,193.5 C 324.573,195.027 323.906,196.027 322.5,196.5C 322.427,194.973 323.094,193.973 324.5,193.5 Z"/></g>
<g><path style="opacity:1" fill="#182345" d="M 335.5,202.5 C 334.551,204.777 333.218,206.777 331.5,208.5C 331.5,206.5 331.5,204.5 331.5,202.5C 332.833,202.5 334.167,202.5 335.5,202.5 Z"/></g>
<g><path style="opacity:1" fill="#182648" d="M 320.5,199.5 C 319.361,204.963 316.361,208.963 311.5,211.5C 314.512,207.462 317.512,203.462 320.5,199.5 Z"/></g>
<g><path style="opacity:1" fill="#182546" d="M 241.5,189.5 C 234.315,201.216 226.649,212.549 218.5,223.5C 218.215,221.712 218.548,220.045 219.5,218.5C 220.934,217.412 221.934,216.078 222.5,214.5C 224.858,211.454 226.858,208.121 228.5,204.5C 229.325,203.614 230.325,203.281 231.5,203.5C 232.486,200.507 233.486,197.507 234.5,194.5C 235.5,194.5 236.5,194.5 237.5,194.5C 237.738,191.931 239.071,190.265 241.5,189.5 Z"/></g>
<g><path style="opacity:0.278" fill="#111c33" d="M 331.5,208.5 C 329.735,211.709 327.735,214.709 325.5,217.5C 326.266,213.622 328.266,210.622 331.5,208.5 Z"/></g>
<g><path style="opacity:1" fill="#1a2649" d="M 215.5,202.5 C 211.777,212.211 206.11,220.545 198.5,227.5C 203.428,218.639 209.094,210.305 215.5,202.5 Z"/></g>
<g><path style="opacity:1" fill="#171f3d" d="M 324.5,218.5 C 323.89,220.434 322.89,222.101 321.5,223.5C 321.185,221.774 321.019,220.107 321,218.5C 322.145,219.684 323.312,219.684 324.5,218.5 Z"/></g>
<g><path style="opacity:0.639" fill="#121b32" d="M 307.5,218.5 C 307.573,220.027 306.906,221.027 305.5,221.5C 305.427,219.973 306.094,218.973 307.5,218.5 Z"/></g>
<g><path style="opacity:0.91" fill="#121e3a" d="M 305.5,221.5 C 304.99,224.674 303.323,227.008 300.5,228.5C 301.786,225.883 303.453,223.55 305.5,221.5 Z"/></g>
<g><path style="opacity:1" fill="#182347" d="M 217.5,224.5 C 213.993,230.852 209.993,236.852 205.5,242.5C 206.219,240.236 206.552,237.903 206.5,235.5C 207.5,235.5 208.5,235.5 209.5,235.5C 209.338,233.473 209.505,231.473 210,229.5C 210.414,229.957 210.914,230.291 211.5,230.5C 212.768,228.696 213.435,226.696 213.5,224.5C 214.833,224.5 216.167,224.5 217.5,224.5 Z"/></g>
<g><path style="opacity:0.765" fill="#0d132a" d="M 300.5,228.5 C 300.573,230.027 299.906,231.027 298.5,231.5C 298.427,229.973 299.094,228.973 300.5,228.5 Z"/></g>
<g><path style="opacity:0.98" fill="#172243" d="M 321.5,223.5 C 317.19,230.466 312.523,237.133 307.5,243.5C 307.838,241.146 308.338,238.813 309,236.5C 310.011,235.663 311.178,235.33 312.5,235.5C 314.18,232.311 315.514,228.978 316.5,225.5C 318.322,225.169 319.989,224.502 321.5,223.5 Z"/></g>
<g><path style="opacity:1" fill="#19264b" d="M 198.5,227.5 C 197.105,230.4 195.939,233.4 195,236.5C 193.989,237.337 192.822,237.67 191.5,237.5C 193.344,233.808 195.677,230.475 198.5,227.5 Z"/></g>
<g><path style="opacity:0.792" fill="#151d38" d="M 191.5,237.5 C 191.378,240.292 190.044,242.292 187.5,243.5C 188.34,241.147 189.674,239.147 191.5,237.5 Z"/></g>
<g><path style="opacity:1" fill="#15223f" d="M 205.5,242.5 C 204.974,244.23 203.974,245.564 202.5,246.5C 202.5,245.167 202.5,243.833 202.5,242.5C 203.5,242.5 204.5,242.5 205.5,242.5 Z"/></g>
<g><path style="opacity:1" fill="#182648" d="M 294.5,237.5 C 293.94,239.801 293.44,242.134 293,244.5C 290.297,246.229 287.797,248.229 285.5,250.5C 288.117,245.886 291.117,241.553 294.5,237.5 Z"/></g>
<g><path style="opacity:0.227" fill="#0b142b" d="M 202.5,246.5 C 202.573,248.027 201.906,249.027 200.5,249.5C 200.427,247.973 201.094,246.973 202.5,246.5 Z"/></g>
<g><path style="opacity:0.871" fill="#16213d" d="M 307.5,243.5 C 304.883,248.114 301.883,252.447 298.5,256.5C 298.34,254.801 298.506,253.134 299,251.5C 302.237,249.769 304.07,247.102 304.5,243.5C 305.5,243.5 306.5,243.5 307.5,243.5 Z"/></g>
<g><path style="opacity:1" fill="#141d39" d="M 298.5,256.5 C 297.241,260.025 295.241,263.025 292.5,265.5C 293.047,261.515 295.047,258.515 298.5,256.5 Z"/></g>
<g><path style="opacity:0.937" fill="#141f36" d="M 198.5,252.5 C 196.327,256.852 193.66,260.852 190.5,264.5C 191.895,259.639 194.562,255.639 198.5,252.5 Z"/></g>
<g><path style="opacity:1" fill="#1a2648" d="M 285.5,250.5 C 285.12,253.745 283.953,256.745 282,259.5C 279.063,263.721 275.896,267.721 272.5,271.5C 271.917,275.081 269.917,277.414 266.5,278.5C 272.058,268.614 278.392,259.281 285.5,250.5 Z"/></g>
<g><path style="opacity:1" fill="#1d2b53" d="M 185.5,246.5 C 185.657,247.873 185.49,249.207 185,250.5C 183.086,252.748 181.586,255.248 180.5,258C 181.233,259.766 181.567,261.599 181.5,263.5C 180.07,263.579 178.736,263.246 177.5,262.5C 175.775,265.198 173.441,267.198 170.5,268.5C 175.008,260.812 180.008,253.478 185.5,246.5 Z"/></g>
<g><path style="opacity:1" fill="#17203e" d="M 292.5,265.5 C 290.745,268.68 288.745,271.68 286.5,274.5C 287.167,271.833 287.833,269.167 288.5,266.5C 289.959,266.567 291.292,266.234 292.5,265.5 Z"/></g>
<g><path style="opacity:1" fill="#162442" d="M 190.5,265.5 C 187.488,269.538 184.488,273.538 181.5,277.5C 182.391,274.425 183.557,271.425 185,268.5C 186.264,266.393 188.097,265.393 190.5,265.5 Z"/></g>
<g><path style="opacity:1" fill="#172243" d="M 170.5,268.5 C 170.641,273.015 168.641,276.015 164.5,277.5C 165.759,273.975 167.759,270.975 170.5,268.5 Z"/></g>
<g><path style="opacity:1" fill="#162242" d="M 285.5,275.5 C 284.241,279.025 282.241,282.025 279.5,284.5C 280.265,281.904 280.599,279.237 280.5,276.5C 282.292,276.634 283.958,276.301 285.5,275.5 Z"/></g>
<g><path style="opacity:0.976" fill="#14213c" d="M 181.5,277.5 C 180.66,279.853 179.326,281.853 177.5,283.5C 176.862,280.144 178.196,278.144 181.5,277.5 Z"/></g>
<g><path style="opacity:1" fill="#1a2649" d="M 266.5,278.5 C 267.138,281.856 265.804,283.856 262.5,284.5C 263.34,282.147 264.674,280.147 266.5,278.5 Z"/></g>
<g><path style="opacity:1" fill="#182345" d="M 164.5,277.5 C 163.781,279.764 163.448,282.097 163.5,284.5C 162.448,284.351 161.448,284.517 160.5,285C 158.841,287.844 156.841,290.344 154.5,292.5C 157.092,286.976 160.425,281.976 164.5,277.5 Z"/></g>
<g><path style="opacity:1" fill="#17223c" d="M 177.5,283.5 C 175.327,287.852 172.66,291.852 169.5,295.5C 170.761,291.269 172.428,287.269 174.5,283.5C 175.5,283.5 176.5,283.5 177.5,283.5 Z"/></g>
<g><path style="opacity:0.682" fill="#101a2c" d="M 279.5,284.5 C 279.573,286.027 278.906,287.027 277.5,287.5C 277.285,285.821 277.952,284.821 279.5,284.5 Z"/></g>
<g><path style="opacity:1" fill="#1d3167" d="M 226.5,190.5 C 225.046,193.4 226.046,194.733 229.5,194.5C 229.826,197.607 228.659,199.94 226,201.5C 225.667,199.167 225.333,196.833 225,194.5C 222,196.167 219.667,198.5 218,201.5C 219.087,205.968 220.587,210.301 222.5,214.5C 221.934,216.078 220.934,217.412 219.5,218.5C 218.548,220.045 218.215,221.712 218.5,223.5C 218.5,224.167 218.167,224.5 217.5,224.5C 216.167,224.5 214.833,224.5 213.5,224.5C 213.435,226.696 212.768,228.696 211.5,230.5C 210.914,230.291 210.414,229.957 210,229.5C 209.505,231.473 209.338,233.473 209.5,235.5C 208.5,235.5 207.5,235.5 206.5,235.5C 206.552,237.903 206.219,240.236 205.5,242.5C 204.5,242.5 203.5,242.5 202.5,242.5C 202.5,243.833 202.5,245.167 202.5,246.5C 201.094,246.973 200.427,247.973 200.5,249.5C 200.573,251.027 199.906,252.027 198.5,252.5C 194.562,255.639 191.895,259.639 190.5,264.5C 190.5,264.833 190.5,265.167 190.5,265.5C 188.097,265.393 186.264,266.393 185,268.5C 183.557,271.425 182.391,274.425 181.5,277.5C 178.196,278.144 176.862,280.144 177.5,283.5C 176.5,283.5 175.5,283.5 174.5,283.5C 172.428,287.269 170.761,291.269 169.5,295.5C 167.952,295.821 167.285,296.821 167.5,298.5C 167.5,298.833 167.5,299.167 167.5,299.5C 165.856,299.714 164.356,299.38 163,298.5C 162.5,299 162,299.5 161.5,300C 163.037,301.11 163.703,302.61 163.5,304.5C 160.221,305.031 158.887,307.031 159.5,310.5C 159.5,311.167 159.167,311.5 158.5,311.5C 157.5,311.5 156.5,311.5 155.5,311.5C 154.361,314.004 153.694,316.67 153.5,319.5C 152.5,319.5 151.5,319.5 150.5,319.5C 149.551,321.737 148.884,324.071 148.5,326.5C 148.5,327.167 148.167,327.5 147.5,327.5C 145.952,327.821 145.285,328.821 145.5,330.5C 144.167,330.5 142.833,330.5 141.5,330.5C 141.5,332.5 141.5,334.5 141.5,336.5C 140.127,336.343 138.793,336.51 137.5,337C 138.816,338.978 138.316,340.478 136,341.5C 135.51,342.793 135.343,344.127 135.5,345.5C 133.669,346.052 132.003,346.052 130.5,345.5C 130.167,346 129.833,346.5 129.5,347C 130.414,348.406 131.08,349.906 131.5,351.5C 130.833,351.5 130.167,351.5 129.5,351.5C 128.312,350.636 127.145,349.636 126,348.5C 125.362,345.236 124.196,342.236 122.5,339.5C 123.5,339.5 124.5,339.5 125.5,339.5C 129.09,334.794 131.757,329.461 133.5,323.5C 137.425,315.976 142.092,308.976 147.5,302.5C 148.906,302.027 149.573,301.027 149.5,299.5C 152.044,298.292 153.378,296.292 153.5,293.5C 153.5,292.833 153.833,292.5 154.5,292.5C 156.841,290.344 158.841,287.844 160.5,285C 161.448,284.517 162.448,284.351 163.5,284.5C 163.448,282.097 163.781,279.764 164.5,277.5C 168.641,276.015 170.641,273.015 170.5,268.5C 173.441,267.198 175.775,265.198 177.5,262.5C 178.736,263.246 180.07,263.579 181.5,263.5C 181.567,261.599 181.233,259.766 180.5,258C 181.586,255.248 183.086,252.748 185,250.5C 185.49,249.207 185.657,247.873 185.5,246.5C 185.427,244.973 186.094,243.973 187.5,243.5C 190.044,242.292 191.378,240.292 191.5,237.5C 192.822,237.67 193.989,237.337 195,236.5C 195.939,233.4 197.105,230.4 198.5,227.5C 206.11,220.545 211.777,212.211 215.5,202.5C 216.34,200.147 217.674,198.147 219.5,196.5C 222.526,195.129 224.859,193.129 226.5,190.5 Z"/></g>
<g><path style="opacity:0.078" fill="#06091b" d="M 276.5,287.5 C 276.833,287.5 277.167,287.5 277.5,287.5C 277.573,289.027 276.906,290.027 275.5,290.5C 275.557,289.391 275.89,288.391 276.5,287.5 Z"/></g>
<g><path style="opacity:1" fill="#17243f" d="M 274.5,292.5 C 273.488,293.872 272.488,295.205 271.5,296.5C 271.215,294.712 271.548,293.045 272.5,291.5C 273.183,291.863 273.85,292.196 274.5,292.5 Z"/></g>
<g><path style="opacity:1" fill="#1d3063" d="M 276.5,287.5 C 275.89,288.391 275.557,289.391 275.5,290.5C 275.167,291.167 274.833,291.833 274.5,292.5C 273.85,292.196 273.183,291.863 272.5,291.5C 271.548,293.045 271.215,294.712 271.5,296.5C 270.752,298.332 269.752,299.999 268.5,301.5C 267.5,301.5 266.5,301.5 265.5,301.5C 263.799,304.244 262.466,307.244 261.5,310.5C 260.66,312.853 259.326,314.853 257.5,316.5C 256.5,316.5 255.5,316.5 254.5,316.5C 254.904,315.244 255.571,314.077 256.5,313C 253.823,310.207 253.99,307.707 257,305.5C 257.36,307.608 258.027,309.608 259,311.5C 260.555,308.887 260.389,306.221 258.5,303.5C 258.709,302.914 259.043,302.414 259.5,302C 257.807,301.153 256.14,300.32 254.5,299.5C 255.599,296.068 257.933,294.068 261.5,293.5C 261.753,295.827 261.086,297.827 259.5,299.5C 260.002,300.521 260.668,300.688 261.5,300C 264.719,297.152 266.719,293.652 267.5,289.5C 269.5,289.833 271.5,290.167 273.5,290.5C 273.5,289.5 273.5,288.5 273.5,287.5C 274.5,287.5 275.5,287.5 276.5,287.5 Z"/></g>
<g><path style="opacity:1" fill="#1c2953" d="M 262.5,284.5 C 261.854,286.156 261.187,287.823 260.5,289.5C 260.846,290.849 261.179,292.183 261.5,293.5C 257.933,294.068 255.599,296.068 254.5,299.5C 254.011,302.324 252.344,303.657 249.5,303.5C 253.095,296.638 257.428,290.304 262.5,284.5 Z"/></g>
<g><path style="opacity:0.933" fill="#142137" d="M 153.5,293.5 C 153.378,296.292 152.044,298.292 149.5,299.5C 150.449,297.223 151.782,295.223 153.5,293.5 Z"/></g>
<g><path style="opacity:0.729" fill="#0f192f" d="M 169.5,295.5 C 169.573,297.027 168.906,298.027 167.5,298.5C 167.285,296.821 167.952,295.821 169.5,295.5 Z"/></g>
<g><path style="opacity:1" fill="#182547" d="M 167.5,299.5 C 166.136,301.191 164.803,302.858 163.5,304.5C 163.703,302.61 163.037,301.11 161.5,300C 162,299.5 162.5,299 163,298.5C 164.356,299.38 165.856,299.714 167.5,299.5 Z"/></g>
<g><path style="opacity:0.463" fill="#0d1728" d="M 149.5,299.5 C 149.573,301.027 148.906,302.027 147.5,302.5C 147.427,300.973 148.094,299.973 149.5,299.5 Z"/></g>
<g><path style="opacity:1" fill="#1c3169" d="M 254.5,299.5 C 256.14,300.32 257.807,301.153 259.5,302C 259.043,302.414 258.709,302.914 258.5,303.5C 260.389,306.221 260.555,308.887 259,311.5C 258.027,309.608 257.36,307.608 257,305.5C 253.99,307.707 253.823,310.207 256.5,313C 255.571,314.077 254.904,315.244 254.5,316.5C 253,317.588 251.667,318.921 250.5,320.5C 249.264,319.754 247.93,319.421 246.5,319.5C 246.5,318.5 246.5,317.5 246.5,316.5C 245.5,316.5 244.5,316.5 243.5,316.5C 243.5,314.833 243.5,313.167 243.5,311.5C 244.822,311.67 245.989,311.337 247,310.5C 248.903,308.559 249.736,306.226 249.5,303.5C 252.344,303.657 254.011,302.324 254.5,299.5 Z"/></g>
<g><path style="opacity:1" fill="#15223f" d="M 163.5,304.5 C 162.525,306.795 161.192,308.795 159.5,310.5C 158.887,307.031 160.221,305.031 163.5,304.5 Z"/></g>
<g><path style="opacity:1" fill="#1b2748" d="M 249.5,303.5 C 249.736,306.226 248.903,308.559 247,310.5C 245.989,311.337 244.822,311.67 243.5,311.5C 245.025,308.437 247.025,305.77 249.5,303.5 Z"/></g>
<g><path style="opacity:0.988" fill="#16213f" d="M 268.5,301.5 C 266.518,304.81 264.185,307.81 261.5,310.5C 262.466,307.244 263.799,304.244 265.5,301.5C 266.5,301.5 267.5,301.5 268.5,301.5 Z"/></g>
<g><path style="opacity:0.961" fill="#17233a" d="M 158.5,311.5 C 157.331,314.511 155.664,317.178 153.5,319.5C 153.694,316.67 154.361,314.004 155.5,311.5C 156.5,311.5 157.5,311.5 158.5,311.5 Z"/></g>
<g><path style="opacity:1" fill="#131f3a" d="M 254.5,316.5 C 255.5,316.5 256.5,316.5 257.5,316.5C 256.66,318.853 255.326,320.853 253.5,322.5C 254.15,320.565 254.483,318.565 254.5,316.5 Z"/></g>
<g><path style="opacity:1" fill="#151f3a" d="M 153.5,319.5 C 152.189,322.135 150.522,324.469 148.5,326.5C 148.884,324.071 149.551,321.737 150.5,319.5C 151.5,319.5 152.5,319.5 153.5,319.5 Z"/></g>
<g><path style="opacity:1" fill="#162242" d="M 253.5,322.5 C 252.214,325.117 250.547,327.45 248.5,329.5C 248.884,327.071 249.551,324.737 250.5,322.5C 251.5,322.5 252.5,322.5 253.5,322.5 Z"/></g>
<g><path style="opacity:1" fill="#1a2544" d="M 233.5,326.5 C 234.138,329.856 232.804,331.856 229.5,332.5C 230.34,330.147 231.674,328.147 233.5,326.5 Z"/></g>
<g><path style="opacity:1" fill="#182345" d="M 147.5,327.5 C 146.277,331.049 144.277,334.049 141.5,336.5C 141.5,334.5 141.5,332.5 141.5,330.5C 142.833,330.5 144.167,330.5 145.5,330.5C 145.285,328.821 145.952,327.821 147.5,327.5 Z"/></g>
<g><path style="opacity:1" fill="#1a294d" d="M 133.5,323.5 C 131.757,329.461 129.09,334.794 125.5,339.5C 124.5,339.5 123.5,339.5 122.5,339.5C 125.393,333.612 129.06,328.278 133.5,323.5 Z"/></g>
<g><path style="opacity:1" fill="#1c3062" d="M 243.5,311.5 C 243.5,313.167 243.5,314.833 243.5,316.5C 244.5,316.5 245.5,316.5 246.5,316.5C 246.5,317.5 246.5,318.5 246.5,319.5C 247.93,319.421 249.264,319.754 250.5,320.5C 251.667,318.921 253,317.588 254.5,316.5C 254.483,318.565 254.15,320.565 253.5,322.5C 252.5,322.5 251.5,322.5 250.5,322.5C 249.551,324.737 248.884,327.071 248.5,329.5C 247.66,331.853 246.326,333.853 244.5,335.5C 243.761,335.369 243.094,335.536 242.5,336C 240.262,339.721 237.595,342.887 234.5,345.5C 235.721,341.89 235.054,338.557 232.5,335.5C 233.32,333.889 234.654,333.222 236.5,333.5C 237.378,341.168 238.878,341.168 241,333.5C 242.011,334.337 243.178,334.67 244.5,334.5C 244.884,332.071 245.551,329.737 246.5,327.5C 244.856,327.286 243.356,327.62 242,328.5C 241.808,326.423 241.308,324.423 240.5,322.5C 238.202,323.98 235.869,325.313 233.5,326.5C 236.588,321.32 239.922,316.32 243.5,311.5 Z"/></g>
<g><path style="opacity:1" fill="#1c2c54" d="M 229.5,332.5 C 228.844,335.667 228.511,338.667 228.5,341.5C 225.252,341.863 223.086,343.529 222,346.5C 220.887,347.305 219.721,347.972 218.5,348.5C 221.676,342.811 225.342,337.477 229.5,332.5 Z"/></g>
<g><path style="opacity:0.984" fill="#162346" d="M 141.5,336.5 C 140.241,340.025 138.241,343.025 135.5,345.5C 135.343,344.127 135.51,342.793 136,341.5C 138.316,340.478 138.816,338.978 137.5,337C 138.793,336.51 140.127,336.343 141.5,336.5 Z"/></g>
<g><path style="opacity:1" fill="#19254c" d="M 135.5,345.5 C 134.66,347.853 133.326,349.853 131.5,351.5C 131.08,349.906 130.414,348.406 129.5,347C 129.833,346.5 130.167,346 130.5,345.5C 132.003,346.052 133.669,346.052 135.5,345.5 Z"/></g>
<g><path style="opacity:1" fill="#172645" d="M 244.5,335.5 C 239.992,343.188 234.992,350.522 229.5,357.5C 229.343,356.127 229.51,354.793 230,353.5C 231.792,350.98 233.292,348.314 234.5,345.5C 237.595,342.887 240.262,339.721 242.5,336C 243.094,335.536 243.761,335.369 244.5,335.5 Z"/></g>
<g><path style="opacity:0.553" fill="#0b142d" d="M 218.5,348.5 C 218.5,349.167 218.5,349.833 218.5,350.5C 217.833,350.833 217.167,351.167 216.5,351.5C 216.427,349.973 217.094,348.973 218.5,348.5 Z"/></g>
<g><path style="opacity:1" fill="#1d316a" d="M 127.5,353.5 C 126.766,354.708 126.433,356.041 126.5,357.5C 125.5,357.5 124.5,357.5 123.5,357.5C 123.657,358.873 123.49,360.207 123,361.5C 120.585,364.12 118.418,366.12 116.5,367.5C 117.319,364.695 117.819,361.695 118,358.5C 118.333,358.833 118.667,359.167 119,359.5C 120.152,357.351 121.652,355.518 123.5,354C 122.743,352.488 121.743,351.154 120.5,350C 121.025,349.308 121.692,348.808 122.5,348.5C 124.85,349.577 126.517,351.244 127.5,353.5 Z"/></g>
<g><path style="opacity:1" fill="#1b2646" d="M 218.5,350.5 C 216.133,355.186 213.8,359.852 211.5,364.5C 213.349,367.364 215.016,370.364 216.5,373.5C 212.334,371.993 210,368.993 209.5,364.5C 210.557,359.38 212.89,355.047 216.5,351.5C 217.167,351.167 217.833,350.833 218.5,350.5 Z"/></g>
<g><path style="opacity:0.718" fill="#121f3e" d="M 114.5,351.5 C 114.155,354.198 112.822,356.198 110.5,357.5C 111.34,355.147 112.674,353.147 114.5,351.5 Z"/></g>
<g><path style="opacity:1" fill="#1c3163" d="M 122.5,339.5 C 124.196,342.236 125.362,345.236 126,348.5C 127.145,349.636 128.312,350.636 129.5,351.5C 128.833,352.167 128.167,352.833 127.5,353.5C 126.517,351.244 124.85,349.577 122.5,348.5C 121.692,348.808 121.025,349.308 120.5,350C 121.743,351.154 122.743,352.488 123.5,354C 121.652,355.518 120.152,357.351 119,359.5C 118.667,359.167 118.333,358.833 118,358.5C 117.819,361.695 117.319,364.695 116.5,367.5C 115.604,368.506 114.938,368.506 114.5,367.5C 113.854,365.844 113.187,364.177 112.5,362.5C 114.83,359.006 116.83,355.339 118.5,351.5C 117.167,351.5 115.833,351.5 114.5,351.5C 116.673,347.148 119.34,343.148 122.5,339.5 Z"/></g>
<g><path style="opacity:1" fill="#1f306a" d="M 114.5,351.5 C 115.833,351.5 117.167,351.5 118.5,351.5C 116.83,355.339 114.83,359.006 112.5,362.5C 113.187,364.177 113.854,365.844 114.5,367.5C 113.427,368.251 113.26,369.251 114,370.5C 114.333,370.167 114.667,369.833 115,369.5C 115.49,370.793 115.657,372.127 115.5,373.5C 113.672,372.206 111.672,371.206 109.5,370.5C 109.374,368.8 108.707,367.3 107.5,366C 108.803,363.256 109.803,360.423 110.5,357.5C 112.822,356.198 114.155,354.198 114.5,351.5 Z"/></g>
<g><path style="opacity:0.975" fill="#1b2339" d="M 229.5,359.5 C 285.168,359.333 340.834,359.5 396.5,360C 402.006,360.38 406.006,362.88 408.5,367.5C 406.216,367.025 404.216,366.025 402.5,364.5C 400.95,363.559 399.284,362.893 397.5,362.5C 341.326,362.166 285.326,361.166 229.5,359.5 Z"/></g>
<g><path style="opacity:1" fill="#1d316b" d="M 397.5,362.5 C 399.284,362.893 400.95,363.559 402.5,364.5C 402.052,368.524 401.386,372.524 400.5,376.5C 399.818,375.757 399.151,375.091 398.5,374.5C 397.486,373.326 396.153,372.66 394.5,372.5C 394.389,371.883 394.056,371.383 393.5,371C 394.949,369.883 396.616,369.216 398.5,369C 399.337,367.989 399.67,366.822 399.5,365.5C 341.929,365.831 284.429,365.498 227,364.5C 225.776,367.473 223.776,368.14 221,366.5C 220.48,364.711 220.813,363.044 222,361.5C 222.674,362.578 223.674,363.245 225,363.5C 282.481,362.51 339.981,362.177 397.5,362.5 Z"/></g>
<g><path style="opacity:1" fill="#1d3267" d="M 234.5,345.5 C 233.292,348.314 231.792,350.98 230,353.5C 229.51,354.793 229.343,356.127 229.5,357.5C 229.5,358.167 229.5,358.833 229.5,359.5C 285.326,361.166 341.326,362.166 397.5,362.5C 339.981,362.177 282.481,362.51 225,363.5C 223.674,363.245 222.674,362.578 222,361.5C 220.813,363.044 220.48,364.711 221,366.5C 223.776,368.14 225.776,367.473 227,364.5C 284.429,365.498 341.929,365.831 399.5,365.5C 399.67,366.822 399.337,367.989 398.5,369C 396.616,369.216 394.949,369.883 393.5,371C 394.056,371.383 394.389,371.883 394.5,372.5C 390.833,372.5 387.167,372.5 383.5,372.5C 382.469,371.751 381.302,371.085 380,370.5C 328.333,370.833 276.667,371.167 225,371.5C 223.203,369.844 221.036,368.844 218.5,368.5C 215.761,370.231 216.094,371.397 219.5,372C 273.832,372.5 328.166,372.667 382.5,372.5C 327.336,373.499 272.003,373.832 216.5,373.5C 215.016,370.364 213.349,367.364 211.5,364.5C 213.8,359.852 216.133,355.186 218.5,350.5C 218.5,349.833 218.5,349.167 218.5,348.5C 219.721,347.972 220.887,347.305 222,346.5C 223.086,343.529 225.252,341.863 228.5,341.5C 228.511,338.667 228.844,335.667 229.5,332.5C 232.804,331.856 234.138,329.856 233.5,326.5C 235.869,325.313 238.202,323.98 240.5,322.5C 241.308,324.423 241.808,326.423 242,328.5C 243.356,327.62 244.856,327.286 246.5,327.5C 245.551,329.737 244.884,332.071 244.5,334.5C 243.178,334.67 242.011,334.337 241,333.5C 238.878,341.168 237.378,341.168 236.5,333.5C 234.654,333.222 233.32,333.889 232.5,335.5C 235.054,338.557 235.721,341.89 234.5,345.5 Z"/></g>
<g><path style="opacity:0.494" fill="#0c1525" d="M 105.5,364.5 C 105.573,366.027 104.906,367.027 103.5,367.5C 103.427,365.973 104.094,364.973 105.5,364.5 Z"/></g>
<g><path style="opacity:1" fill="#1c2e5a" d="M 110.5,357.5 C 109.803,360.423 108.803,363.256 107.5,366C 108.707,367.3 109.374,368.8 109.5,370.5C 111.672,371.206 113.672,372.206 115.5,373.5C 115.5,374.167 115.5,374.833 115.5,375.5C 114.222,375.782 113.222,376.449 112.5,377.5C 111.273,375.419 109.773,373.419 108,371.5C 105.891,371.566 103.725,371.899 101.5,372.5C 100.571,373.689 100.238,375.022 100.5,376.5C 99.5,376.5 98.5,376.5 97.5,376.5C 98.7589,372.975 100.759,369.975 103.5,367.5C 104.906,367.027 105.573,366.027 105.5,364.5C 106.433,361.63 108.1,359.296 110.5,357.5 Z"/></g>
<g><path style="opacity:1" fill="#1a274c" d="M 129.5,351.5 C 130.167,351.5 130.833,351.5 131.5,351.5C 126.551,359.777 121.218,367.777 115.5,375.5C 115.5,374.833 115.5,374.167 115.5,373.5C 115.657,372.127 115.49,370.793 115,369.5C 114.667,369.833 114.333,370.167 114,370.5C 113.26,369.251 113.427,368.251 114.5,367.5C 114.938,368.506 115.604,368.506 116.5,367.5C 118.418,366.12 120.585,364.12 123,361.5C 123.49,360.207 123.657,358.873 123.5,357.5C 124.5,357.5 125.5,357.5 126.5,357.5C 126.433,356.041 126.766,354.708 127.5,353.5C 128.167,352.833 128.833,352.167 129.5,351.5 Z"/></g>
<g><path style="opacity:1" fill="#1d3265" d="M 402.5,364.5 C 404.216,366.025 406.216,367.025 408.5,367.5C 409.404,368.209 409.737,369.209 409.5,370.5C 409.821,390.576 409.487,410.576 408.5,430.5C 407.698,429.048 407.198,427.382 407,425.5C 406.722,426.416 406.222,427.082 405.5,427.5C 405.195,410.805 405.528,394.138 406.5,377.5C 406.018,374.459 405.351,371.459 404.5,368.5C 401.472,384.471 400.806,400.637 402.5,417C 402.079,419.185 401.579,421.351 401,423.5C 400.292,422.619 399.458,421.953 398.5,421.5C 397.167,405.833 397.167,390.167 398.5,374.5C 399.151,375.091 399.818,375.757 400.5,376.5C 401.386,372.524 402.052,368.524 402.5,364.5 Z"/></g>
<g><path style="opacity:1" fill="#1e2f6b" d="M 383.5,372.5 C 383.167,372.5 382.833,372.5 382.5,372.5C 328.166,372.667 273.832,372.5 219.5,372C 216.094,371.397 215.761,370.231 218.5,368.5C 221.036,368.844 223.203,369.844 225,371.5C 276.667,371.167 328.333,370.833 380,370.5C 381.302,371.085 382.469,371.751 383.5,372.5 Z"/></g>
<g><path style="opacity:1" fill="#1b2a50" d="M 97.5,376.5 C 97.5,377.167 97.5,377.833 97.5,378.5C 96.5386,380.265 96.2053,382.265 96.5,384.5C 95.1667,384.5 93.8333,384.5 92.5,384.5C 92.6495,385.552 92.4828,386.552 92,387.5C 90.5315,388.989 89.0315,390.323 87.5,391.5C 90.0563,385.951 93.3897,380.951 97.5,376.5 Z"/></g>
<g><path style="opacity:0.522" fill="#0e152b" d="M 409.5,370.5 C 410.662,390.329 410.829,410.329 410,430.5C 409.722,431.416 409.222,432.082 408.5,432.5C 408.5,431.833 408.5,431.167 408.5,430.5C 409.487,410.576 409.821,390.576 409.5,370.5 Z"/></g>
<g><path style="opacity:1" fill="#1d3265" d="M 97.5,378.5 C 97.915,382.361 98.915,386.027 100.5,389.5C 98.0876,389.756 96.4209,388.756 95.5,386.5C 93.976,387.527 93.3094,389.027 93.5,391C 93.7483,392.716 94.415,394.216 95.5,395.5C 94,397.167 92.5,398.833 91,400.5C 90.4501,411.01 89.6167,421.344 88.5,431.5C 87.5,431.5 86.5,431.5 85.5,431.5C 85.5,431.167 85.5,430.833 85.5,430.5C 85.5,419.167 85.5,407.833 85.5,396.5C 85.4021,394.447 86.0687,392.78 87.5,391.5C 89.0315,390.323 90.5315,388.989 92,387.5C 92.4828,386.552 92.6495,385.552 92.5,384.5C 93.8333,384.5 95.1667,384.5 96.5,384.5C 96.2053,382.265 96.5386,380.265 97.5,378.5 Z"/></g>
<g><path style="opacity:0.72" fill="#12182d" d="M 85.5,396.5 C 85.5,407.833 85.5,419.167 85.5,430.5C 82.8842,419.164 82.8842,407.831 85.5,396.5 Z"/></g>
<g><path style="opacity:1" fill="#182547" d="M 85.5,431.5 C 86.5,431.5 87.5,431.5 88.5,431.5C 88.5569,432.609 88.8902,433.609 89.5,434.5C 89.5,435.5 89.5,436.5 89.5,437.5C 87.1782,436.198 85.8449,434.198 85.5,431.5 Z"/></g>
<g><path style="opacity:1" fill="#1e3169" d="M 405.5,427.5 C 405.433,429.401 405.767,431.234 406.5,433C 405.296,434.699 403.962,436.199 402.5,437.5C 400.549,437.773 399.049,437.107 398,435.5C 393.954,436.223 389.954,437.223 386,438.5C 384.105,438.385 382.438,437.718 381,436.5C 291.667,436.5 202.333,436.5 113,436.5C 112.196,437.804 111.029,438.471 109.5,438.5C 104.029,436.666 98.5287,436 93,436.5C 91.5657,436.138 90.3991,435.472 89.5,434.5C 88.8902,433.609 88.5569,432.609 88.5,431.5C 89.6167,421.344 90.4501,411.01 91,400.5C 92.5,398.833 94,397.167 95.5,395.5C 94.415,394.216 93.7483,392.716 93.5,391C 93.3094,389.027 93.976,387.527 95.5,386.5C 96.4209,388.756 98.0876,389.756 100.5,389.5C 98.915,386.027 97.915,382.361 97.5,378.5C 97.5,377.833 97.5,377.167 97.5,376.5C 98.5,376.5 99.5,376.5 100.5,376.5C 100.238,375.022 100.571,373.689 101.5,372.5C 103.725,371.899 105.891,371.566 108,371.5C 109.773,373.419 111.273,375.419 112.5,377.5C 112.5,378.167 112.5,378.833 112.5,379.5C 112.672,380.492 112.338,381.158 111.5,381.5C 106.845,383.162 104.512,386.495 104.5,391.5C 102.227,392.767 100.227,394.433 98.5,396.5C 97.596,397.209 97.2627,398.209 97.5,399.5C 96.6733,404.651 96.1733,409.984 96,415.5C 95.8295,410.136 95.3295,404.802 94.5,399.5C 93.1194,409.801 92.6194,420.135 93,430.5C 94.3848,431.551 95.3848,432.884 96,434.5C 197,433.167 298,433.167 399,434.5C 399.414,434.043 399.914,433.709 400.5,433.5C 401.575,428.823 401.575,427.823 400.5,430.5C 398.801,430.66 397.134,430.494 395.5,430C 394.244,429.583 393.577,428.75 393.5,427.5C 394.167,427.5 394.833,427.5 395.5,427.5C 399.984,427.275 400.651,425.608 397.5,422.5C 397.624,421.893 397.957,421.56 398.5,421.5C 399.458,421.953 400.292,422.619 401,423.5C 401.579,421.351 402.079,419.185 402.5,417C 400.806,400.637 401.472,384.471 404.5,368.5C 405.351,371.459 406.018,374.459 406.5,377.5C 405.528,394.138 405.195,410.805 405.5,427.5 Z"/></g>
<g><path style="opacity:0.237" fill="#040f20" d="M 99.5,399.5 C 99.5,408.5 99.5,417.5 99.5,426.5C 197.167,426.5 294.833,426.5 392.5,426.5C 392.5,426.833 392.5,427.167 392.5,427.5C 294.5,427.5 196.5,427.5 98.5,427.5C 98.1731,417.985 98.5064,408.652 99.5,399.5 Z"/></g>
<g><path style="opacity:0.988" fill="#233155" d="M 98.5,396.5 C 99.404,397.209 99.7373,398.209 99.5,399.5C 98.5064,408.652 98.1731,417.985 98.5,427.5C 98.1667,427.5 97.8333,427.5 97.5,427.5C 97.5,418.167 97.5,408.833 97.5,399.5C 97.2627,398.209 97.596,397.209 98.5,396.5 Z"/></g>
<g><path style="opacity:1" fill="#1d3265" d="M 97.5,399.5 C 97.5,408.833 97.5,418.167 97.5,427.5C 96.5,427.5 95.5,427.5 94.5,427.5C 94.2222,429.346 94.8888,430.68 96.5,431.5C 98.5355,429.987 100.869,429.321 103.5,429.5C 151.438,429.853 199.438,429.853 247.5,429.5C 293.736,429.512 339.902,430.179 386,431.5C 389.063,431.065 389.23,430.232 386.5,429C 290.332,428.833 194.332,428.333 98.5,427.5C 196.5,427.5 294.5,427.5 392.5,427.5C 392.833,427.5 393.167,427.5 393.5,427.5C 393.577,428.75 394.244,429.583 395.5,430C 397.134,430.494 398.801,430.66 400.5,430.5C 401.575,427.823 401.575,428.823 400.5,433.5C 399.914,433.709 399.414,434.043 399,434.5C 298,433.167 197,433.167 96,434.5C 95.3848,432.884 94.3848,431.551 93,430.5C 92.6194,420.135 93.1194,409.801 94.5,399.5C 95.3295,404.802 95.8295,410.136 96,415.5C 96.1733,409.984 96.6733,404.651 97.5,399.5 Z"/></g>
<g><path style="opacity:1" fill="#20306a" d="M 97.5,427.5 C 97.8333,427.5 98.1667,427.5 98.5,427.5C 194.332,428.333 290.332,428.833 386.5,429C 389.23,430.232 389.063,431.065 386,431.5C 339.902,430.179 293.736,429.512 247.5,429.5C 199.438,429.853 151.438,429.853 103.5,429.5C 100.869,429.321 98.5355,429.987 96.5,431.5C 94.8888,430.68 94.2222,429.346 94.5,427.5C 95.5,427.5 96.5,427.5 97.5,427.5 Z"/></g>
<g><path style="opacity:0.428" fill="#081129" d="M 388.5,374.5 C 391.167,374.5 393.833,374.5 396.5,374.5C 396.819,392.243 396.486,409.91 395.5,427.5C 394.833,427.5 394.167,427.5 393.5,427.5C 393.167,427.5 392.833,427.5 392.5,427.5C 392.5,427.167 392.5,426.833 392.5,426.5C 393.496,426.586 394.329,426.252 395,425.5C 395.5,408.837 395.667,392.17 395.5,375.5C 392.941,375.802 390.607,375.468 388.5,374.5 Z"/></g>
<g><path style="opacity:0.98" fill="#151d37" d="M 104.5,391.5 C 102.819,394.203 101.153,396.869 99.5,399.5C 99.7373,398.209 99.404,397.209 98.5,396.5C 100.227,394.433 102.227,392.767 104.5,391.5 Z"/></g>
<g><path style="opacity:1" fill="#18223d" d="M 111.5,381.5 C 109.646,385.221 107.313,388.554 104.5,391.5C 104.512,386.495 106.845,383.162 111.5,381.5 Z"/></g>
<g><path style="opacity:1" fill="#1e2b4d" d="M 382.5,372.5 C 382.833,372.5 383.167,372.5 383.5,372.5C 387.167,372.5 390.833,372.5 394.5,372.5C 396.153,372.66 397.486,373.326 398.5,374.5C 397.167,390.167 397.167,405.833 398.5,421.5C 397.957,421.56 397.624,421.893 397.5,422.5C 400.651,425.608 399.984,427.275 395.5,427.5C 396.486,409.91 396.819,392.243 396.5,374.5C 393.833,374.5 391.167,374.5 388.5,374.5C 335.394,374.179 282.228,374.513 229,375.5C 224.635,375.188 220.468,374.522 216.5,373.5C 272.003,373.832 327.336,373.499 382.5,372.5 Z"/></g>
<g><path style="opacity:0.471" fill="#0d152a" d="M 115.5,375.5 C 114.974,377.23 113.974,378.564 112.5,379.5C 112.5,378.833 112.5,378.167 112.5,377.5C 113.222,376.449 114.222,375.782 115.5,375.5 Z"/></g>
<g><path style="opacity:1" fill="#1b3366" d="M 89.5,434.5 C 90.3991,435.472 91.5657,436.138 93,436.5C 98.5287,436 104.029,436.666 109.5,438.5C 111.029,438.471 112.196,437.804 113,436.5C 202.333,436.5 291.667,436.5 381,436.5C 382.438,437.718 384.105,438.385 386,438.5C 389.954,437.223 393.954,436.223 398,435.5C 399.049,437.107 400.549,437.773 402.5,437.5C 401.694,438.728 400.694,439.728 399.5,440.5C 394.167,440.5 388.833,440.5 383.5,440.5C 287.627,439.829 191.627,439.162 95.5,438.5C 93.4352,438.483 91.4352,438.15 89.5,437.5C 89.5,436.5 89.5,435.5 89.5,434.5 Z"/></g>
<g><path style="opacity:0.98" fill="#182647" d="M 408.5,430.5 C 408.5,431.167 408.5,431.833 408.5,432.5C 406.734,436.602 403.734,439.269 399.5,440.5C 400.694,439.728 401.694,438.728 402.5,437.5C 403.962,436.199 405.296,434.699 406.5,433C 405.767,431.234 405.433,429.401 405.5,427.5C 406.222,427.082 406.722,426.416 407,425.5C 407.198,427.382 407.698,429.048 408.5,430.5 Z"/></g>
<g><path style="opacity:1" fill="#1f3262" d="M 95.5,438.5 C 191.627,439.162 287.627,439.829 383.5,440.5C 287.161,441.164 191.161,440.498 95.5,438.5 Z"/></g>
<g><path style="opacity:0.831" fill="#121b36" d="M 89.5,437.5 C 91.4352,438.15 93.4352,438.483 95.5,438.5C 191.161,440.498 287.161,441.164 383.5,440.5C 388.833,440.5 394.167,440.5 399.5,440.5C 398.737,441.268 397.737,441.768 396.5,442C 297.5,442.667 198.5,442.667 99.5,442C 95.475,441.817 92.1416,440.317 89.5,437.5 Z"/></g>
</svg>
